<svg width="16" height="14" viewBox="0 0 16 14" fill="none" xmlns="http://www.w3.org/2000/svg">
<path fill-rule="evenodd" clip-rule="evenodd" d="M9.45792 1C6.39577 1 3.91577 3.48 3.91577 6.54215C3.91577 6.81829 3.69191 7.04215 3.41577 7.04215C3.13963 7.04215 2.91577 6.81829 2.91577 6.54215C2.91577 2.92772 5.84349 0 9.45792 0C13.0723 0 16.0001 2.92772 16.0001 6.54215C16.0001 10.1566 13.0723 13.0843 9.45792 13.0843C8.06502 13.0843 6.7717 12.6509 5.71132 11.9058C5.48538 11.747 5.43093 11.4352 5.58969 11.2092C5.74846 10.9833 6.06032 10.9288 6.28626 11.0876C7.18202 11.7171 8.27535 12.0843 9.45792 12.0843C12.5201 12.0843 15.0001 9.60429 15.0001 6.54215C15.0001 3.48 12.5201 1 9.45792 1Z" fill="#AAB4C7"/>
<path fill-rule="evenodd" clip-rule="evenodd" d="M0.146447 3.67587C0.341709 3.4806 0.658291 3.4806 0.853553 3.67587L3.56031 6.38262L6.26706 3.67587C6.46233 3.4806 6.77891 3.4806 6.97417 3.67587C7.16943 3.87113 7.16943 4.18771 6.97417 4.38297L3.91386 7.44328C3.7186 7.63854 3.40202 7.63854 3.20676 7.44328L0.146447 4.38297C-0.0488155 4.18771 -0.0488155 3.87113 0.146447 3.67587Z" fill="#AAB4C7"/>
</svg>
