<svg width="16" height="16" viewBox="0 0 16 16" fill="none" xmlns="http://www.w3.org/2000/svg">
<path d="M9.59995 7.2H3.19995V8H9.59995V7.2Z" fill="white"/>
<path d="M9.23195 9.60001H3.19995V10.4H8.82395C8.90395 10.104 9.03195 9.83201 9.23195 9.60001Z" fill="white"/>
<path d="M13.08 6.408L14.4 7.72L13.832 8.288L12.512 6.968L13.08 6.408ZM13.08 5.272L11.384 6.968L13.832 9.416L15.528 7.72L13.08 5.272Z" fill="white"/>
<path d="M11.968 7.52002L13.288 8.84002L7.24805 14.88L5.92805 13.56L11.968 7.52002ZM11.968 6.38402L4.80005 13.552L7.24805 16L14.416 8.83202L11.968 6.38402Z" fill="white"/>
<path d="M4.80005 13.552V16H7.24005L4.80005 13.552Z" fill="white"/>
<path d="M7.99995 1.128L11.672 4.8H7.99995V1.128ZM7.99995 0H7.19995V5.6H12.8V4.8L7.99995 0Z" fill="white"/>
<path d="M12.608 10.12C12.456 10.272 12.28 10.376 12.08 10.432L12 10.44V15.2H0.8V0.8H7.672L12 5.128V7.032C12.048 7.024 12.088 7.016 12.136 7.016C12.304 7.008 12.456 7.048 12.6 7.12C12.672 7.144 12.736 7.176 12.8 7.216V4.8L8 0H0.8C0.36 0 0 0.36 0 0.8V15.2C0 15.64 0.36 16 0.8 16H12C12.44 16 12.8 15.64 12.8 15.2V9.88C12.736 9.96 12.68 10.04 12.608 10.12Z" fill="white"/>
</svg>
