<?xml version="1.0" encoding="utf-8"?>
<!-- Generator: Adobe Illustrator 24.0.0, SVG Export Plug-In . SVG Version: 6.00 Build 0)  -->
<svg version="1.1" id="Layer_1" xmlns="http://www.w3.org/2000/svg" xmlns:xlink="http://www.w3.org/1999/xlink" x="0px" y="0px"
	 viewBox="0 0 34 44" style="enable-background:new 0 0 34 44;" xml:space="preserve">
<style type="text/css">
	.st0{fill:#28B87A;}
</style>
<g>
	<path class="st0" d="M23.4,28.4c-2.1-0.8-4.3-1.2-6.7-1.2c-2.3,0-4.5,0.4-6.7,1.2c-5.9,2.3-9.7,7.3-10,12.9h1.4h14.7
		C16,40.9,16,40.6,16,40.2V38c-2.5-0.4-4.4-2.7-4.4-5.5V31c0-0.4,0.3-0.7,0.7-0.7h1c0.4,0,0.7,0.3,0.7,0.7c0,0.4-0.3,0.7-0.7,0.7
		h-0.3v0.7c0,2.3,1.6,4.2,3.6,4.2c2,0,3.6-1.9,3.6-4.2v-0.7H20c-0.4,0-0.7-0.3-0.7-0.7c0-0.4,0.3-0.7,0.7-0.7h1
		c0.4,0,0.7,0.3,0.7,0.7v1.4c0,2.8-1.9,5.2-4.4,5.5v2.2c0,2.1,1.7,3.8,3.8,3.8c2.1,0,3.8-1.7,3.8-3.8v-2.7c-0.8-0.3-1.5-1.1-1.5-2
		c0-1.2,1-2.2,2.2-2.2c1.2,0,2.2,1,2.2,2.2c0,1-0.6,1.7-1.5,2v2.7c0,0.4-0.1,0.8-0.1,1.1H32h1.4C33.1,35.7,29.3,30.7,23.4,28.4z"/>
	<path class="st0" d="M6.8,10.7L6.8,10.7H7h1.8h18.4h0.2h0h1.4V6.8c0-3.7-3-6.8-6.8-6.8h-10C8.4,0,5.4,3,5.4,6.8v3.9h0.7H6.8z
		 M19.5,6.7h-1.6v1.6c0,0.4-0.3,0.7-0.7,0.7s-0.7-0.3-0.7-0.7V6.7h-1.6c-0.4,0-0.7-0.3-0.7-0.7s0.3-0.7,0.7-0.7h1.6V3.7
		c0-0.4,0.3-0.7,0.7-0.7s0.7,0.3,0.7,0.7v1.6h1.6c0.4,0,0.7,0.3,0.7,0.7S19.9,6.7,19.5,6.7z"/>
	<path class="st0" d="M26.6,12.1L26.6,12.1h-1.9h-17h0H6.8H6.3c0,1.9,0.7,4.1,1.8,6.3c2,4,5.6,8.2,9.1,8.2c3.2,0,6.9-4.2,9-8.3
		c0.8-1.6,1.8-4,1.8-6.3h-0.4H26.6z"/>
</g>
</svg>
