<svg width="34" height="34" viewBox="0 0 34 34" fill="none" xmlns="http://www.w3.org/2000/svg">
<path d="M33 34H1C0.44 34 0 33.56 0 33V1C0 0.44 0.44 0 1 0H33C33.56 0 34 0.44 34 1V33C34 33.56 33.56 34 33 34ZM2 32H32V2H2V32Z" fill="#28B87A"/>
<path d="M28 12C27.76 12 27.54 11.92 27.34 11.76L24.5 9.32L21.66 11.76C21.36 12.02 20.94 12.08 20.6 11.9C20.22 11.74 20 11.4 20 11V1C20 0.44 20.44 0 21 0H28C28.56 0 29 0.44 29 1V11C29 11.4 28.78 11.74 28.42 11.9C28.28 11.96 28.14 12 28 12ZM24.5 7C24.74 7 24.96 7.08 25.16 7.24L27 8.82V2H22V8.82L23.84 7.24C24.04 7.08 24.26 7 24.5 7Z" fill="#28B87A"/>
</svg>
