<?xml version="1.0" encoding="utf-8"?>
<!-- Generator: Adobe Illustrator 24.0.0, SVG Export Plug-In . SVG Version: 6.00 Build 0)  -->
<svg version="1.1" id="Layer_1" xmlns="http://www.w3.org/2000/svg" xmlns:xlink="http://www.w3.org/1999/xlink" x="0px" y="0px"
	 viewBox="0 0 33 44" style="enable-background:new 0 0 33 44;" xml:space="preserve">
<style type="text/css">
	.st0{fill:#28B87A;}
</style>
<g>
	<path class="st0" d="M16.3,24.9c4.3,0,10.5-8.4,10.5-14.3C26.9,4.7,22.2,0,16.3,0C10.5,0,5.8,4.7,5.8,10.5
		C5.8,16.1,11.6,24.9,16.3,24.9z"/>
	<path class="st0" d="M22.8,26.7c-0.7-0.3-1.4-0.5-2.1-0.7c-2.1-0.5-4.4-0.7-6.5-0.4c-0.7,0.1-1.4,0.2-2.1,0.4
		c-0.7,0.2-1.5,0.4-2.2,0.7C3.9,29,0,34.2,0,39.9c0,0.4,0.3,0.7,0.7,0.7h11.9l3.2,3.2c0.1,0.1,0.3,0.2,0.5,0.2
		c0.2,0,0.4-0.1,0.5-0.2l3.4-3.2c0.1,0,0.1,0,0.1,0H32c0.4,0,0.7-0.3,0.7-0.7C32.7,34.2,28.8,29,22.8,26.7z M16.3,42.3l-2.6-2.6
		c0,0,0,0,0-0.1l2-7.6l0.2,0.2c0.1,0.2,0.3,0.3,0.6,0.3s0.4-0.1,0.6-0.3l0.1-0.2l2,7.6L16.3,42.3z M16.4,30.7l-2.9-3.5
		c0.2,0,0.4-0.1,0.6-0.1c0.2,0,0.3,0,0.5-0.1c1.2-0.1,2.4-0.1,3.6,0c0.2,0,0.3,0,0.5,0.1c0.2,0,0.4,0.1,0.6,0.1L16.4,30.7z"/>
</g>
</svg>
