<svg width="24" height="34" viewBox="0 0 24 34" fill="none" xmlns="http://www.w3.org/2000/svg">
<path d="M22.973 34.0001H0.918919C0.404324 34.0001 0 33.5958 0 33.0812V3.67575C0 3.16116 0.404324 2.75684 0.918919 2.75684H6.43243C6.94703 2.75684 7.35135 3.16116 7.35135 3.67575V5.51359H16.5405V3.67575C16.5405 3.16116 16.9449 2.75684 17.4595 2.75684H22.973C23.4876 2.75684 23.8919 3.16116 23.8919 3.67575V33.0812C23.8919 33.5958 23.4876 34.0001 22.973 34.0001ZM1.83784 32.1622H22.0541V4.59467H18.3784V6.43251C18.3784 6.94711 17.9741 7.35143 17.4595 7.35143H6.43243C5.91784 7.35143 5.51351 6.94711 5.51351 6.43251V4.59467H1.83784V32.1622Z" fill="#28B87A"/>
<path d="M17.4595 7.35135H6.43243C5.91784 7.35135 5.51351 6.94703 5.51351 6.43243V0.918919C5.51351 0.404324 5.91784 0 6.43243 0H17.4595C17.9741 0 18.3784 0.404324 18.3784 0.918919V6.43243C18.3784 6.94703 17.9741 7.35135 17.4595 7.35135ZM7.35135 5.51351H16.5405V1.83784H7.35135V5.51351Z" fill="#28B87A"/>
<path d="M18.3784 12.8649H11.027C10.5124 12.8649 10.1081 12.4606 10.1081 11.946C10.1081 11.4314 10.5124 11.0271 11.027 11.0271H18.3784C18.893 11.0271 19.2973 11.4314 19.2973 11.946C19.2973 12.4606 18.893 12.8649 18.3784 12.8649Z" fill="#28B87A"/>
<path d="M5.5135 12.8654C5.40323 12.8654 5.27458 12.8471 5.16431 12.7919C5.05404 12.7552 4.94377 12.6817 4.87026 12.5898C4.68648 12.4244 4.59458 12.1854 4.59458 11.9465C4.59458 11.7076 4.68648 11.4687 4.87026 11.3033C5.20107 10.9541 5.82593 10.9541 6.15674 11.3033C6.34052 11.4687 6.43242 11.7076 6.43242 11.9465C6.43242 12.1854 6.34052 12.4244 6.15674 12.5898C5.99134 12.7735 5.75242 12.8654 5.5135 12.8654Z" fill="#28B87A"/>
<path d="M18.3784 18.3784H11.027C10.5124 18.3784 10.1081 17.974 10.1081 17.4594C10.1081 16.9449 10.5124 16.5405 11.027 16.5405H18.3784C18.893 16.5405 19.2973 16.9449 19.2973 17.4594C19.2973 17.974 18.893 18.3784 18.3784 18.3784Z" fill="#28B87A"/>
<path d="M5.5135 18.3791C5.40323 18.3791 5.27458 18.3607 5.16431 18.3056C5.05404 18.2688 4.94377 18.1953 4.87026 18.1034C4.68648 17.938 4.59458 17.6991 4.59458 17.4602C4.59458 17.2213 4.68648 16.9824 4.87026 16.8169C5.20107 16.4678 5.82593 16.4678 6.15674 16.8169C6.34052 16.9824 6.43242 17.2213 6.43242 17.4602C6.43242 17.6991 6.34052 17.938 6.15674 18.1034C5.99134 18.2872 5.75242 18.3791 5.5135 18.3791Z" fill="#28B87A"/>
<path d="M18.3784 23.8919H11.027C10.5124 23.8919 10.1081 23.4876 10.1081 22.973C10.1081 22.4584 10.5124 22.0541 11.027 22.0541H18.3784C18.893 22.0541 19.2973 22.4584 19.2973 22.973C19.2973 23.4876 18.893 23.8919 18.3784 23.8919Z" fill="#28B87A"/>
<path d="M5.5135 23.8927C5.27458 23.8927 5.03567 23.8008 4.87026 23.617C4.68648 23.4516 4.59458 23.2127 4.59458 22.9737C4.59458 22.7348 4.68648 22.4959 4.87026 22.3305C5.20107 21.9813 5.82593 21.9813 6.15674 22.3305C6.34052 22.4959 6.43242 22.7348 6.43242 22.9737C6.43242 23.2127 6.34052 23.4516 6.15674 23.617C6.08323 23.7089 5.97296 23.7824 5.86269 23.8191C5.75242 23.8743 5.64215 23.8927 5.5135 23.8927Z" fill="#28B87A"/>
</svg>
