<?xml version="1.0" encoding="utf-8"?>
<!-- Generator: Adobe Illustrator 24.0.0, SVG Export Plug-In . SVG Version: 6.00 Build 0)  -->
<svg version="1.1" id="Layer_1" xmlns="http://www.w3.org/2000/svg" xmlns:xlink="http://www.w3.org/1999/xlink" x="0px" y="0px"
	 viewBox="0 0 33 41" style="enable-background:new 0 0 33 41;" xml:space="preserve">
<style type="text/css">
	.st0{fill:#28B87A;}
</style>
<g>
	<path class="st0" d="M16.5,25.1c4.4,0,10.7-8.5,10.7-14.5C27.1,4.8,22.4,0,16.5,0S5.8,4.8,5.8,10.7C5.8,16.2,11.7,25.1,16.5,25.1z"
		/>
	<path class="st0" d="M23,26.9c-2.1-0.8-4.3-1.2-6.6-1.2c-2.3,0-4.5,0.4-6.6,1.2C3.9,29.2,0,34.4,0,40.2C0,40.6,0.3,41,0.7,41h7.7
		c0,0,0,0,0.1,0h2.4c0,0,0,0,0.1,0h21.2c0.4,0,0.7-0.3,0.7-0.7C33,34.4,29.1,29.2,23,26.9z"/>
</g>
</svg>
