<?xml version="1.0" encoding="utf-8"?>
<!-- Generator: Adobe Illustrator 24.0.0, SVG Export Plug-In . SVG Version: 6.00 Build 0)  -->
<svg version="1.1" id="Layer_1" xmlns="http://www.w3.org/2000/svg" xmlns:xlink="http://www.w3.org/1999/xlink" x="0px" y="0px"
	 viewBox="0 0 33 42" style="enable-background:new 0 0 33 42;" xml:space="preserve">
<style type="text/css">
	.st0{fill:#28B87A;}
</style>
<g>
	<path class="st0" d="M6.3,10.5h0.2h19.8h0.3h1.3V6.6C27.9,3,25,0,21.3,0h-9.8C7.9,0,4.9,3,4.9,6.6v3.9H6.3L6.3,10.5z M18.7,6.6
		h-1.6v1.6c0,0.4-0.3,0.7-0.7,0.7c-0.4,0-0.7-0.3-0.7-0.7V6.6h-1.6c-0.4,0-0.7-0.3-0.7-0.7c0-0.4,0.3-0.7,0.7-0.7h1.6V3.7
		C15.7,3.3,16,3,16.4,3c0.4,0,0.7,0.3,0.7,0.7v1.6h1.6c0.4,0,0.7,0.3,0.7,0.7C19.4,6.3,19.1,6.6,18.7,6.6z"/>
	<path class="st0" d="M23.9,28.4c-0.3-0.1-0.6-0.3-0.9-0.4c-2.1-0.8-4.3-1.2-6.5-1.2c-2.3,0-4.5,0.4-6.5,1.2
		c-0.3,0.1-0.6,0.3-0.9,0.4c-5.5,2.5-9,7.5-9,13C0,41.7,0.3,42,0.7,42h31.5c0.4,0,0.7-0.3,0.7-0.7C32.9,35.8,29.4,30.9,23.9,28.4z
		 M21.3,29c-5.5,1.3-10.1,0-10.3,0c1.6-0.6,3.4-0.7,5.1-0.7C17.9,28.2,19.6,28.5,21.3,29z M26.9,37.4h-5.2c-0.3,0-0.6-0.3-0.6-0.6
		s0.3-0.6,0.6-0.6h5.2c0.3,0,0.6,0.3,0.6,0.6C27.5,37.2,27.2,37.4,26.9,37.4z"/>
	<path class="st0" d="M25.6,11.8h-1H8H7.2H6.7H5.8c0,1.8,0.6,4,1.7,6.2c1.9,3.9,5.5,8.1,8.9,8.1c3.1,0,6.8-4.1,8.8-8.1
		c0.8-1.6,1.7-3.9,1.8-6.2h-0.5H25.6z"/>
</g>
</svg>
