<svg width="33" height="34" viewBox="0 0 33 34" fill="none" xmlns="http://www.w3.org/2000/svg">
<path d="M31.1709 33.9999H0.944573C0.415612 33.9999 0 33.5843 0 33.0553V12.2747C0 11.9725 0.13224 11.6891 0.377829 11.5191L15.491 0.184192C15.831 -0.0613972 16.2844 -0.0613972 16.6245 0.184192L31.7376 11.5191C31.9832 11.6891 32.1155 11.9725 32.1155 12.2747V33.0553C32.1155 33.5843 31.6999 33.9999 31.1709 33.9999ZM1.88915 32.1107H30.2263V12.747L16.0577 2.11112L1.88915 12.747V32.1107Z" fill="#28B87A"/>
<path d="M23.6143 34H8.50115C7.97219 34 7.55658 33.5844 7.55658 33.0554V19.8314C7.55658 19.3025 7.97219 18.8868 8.50115 18.8868H23.6143C24.1433 18.8868 24.5589 19.3025 24.5589 19.8314V33.0554C24.5589 33.5844 24.1433 34 23.6143 34ZM9.44572 32.1109H22.6697V20.776H9.44572V32.1109Z" fill="#28B87A"/>
<path d="M23.6143 16.0531H8.50115C7.97219 16.0531 7.55658 15.6375 7.55658 15.1085C7.55658 14.5796 7.97219 14.1639 8.50115 14.1639H23.6143C24.1433 14.1639 24.5589 14.5796 24.5589 15.1085C24.5589 15.6375 24.1433 16.0531 23.6143 16.0531Z" fill="#28B87A"/>
</svg>
