<svg width="34" height="34" viewBox="0 0 34 34" fill="none" xmlns="http://www.w3.org/2000/svg">
<path d="M33 34H8C7.44 34 7 33.56 7 33C7 32.44 7.44 32 8 32H32V2H2V25C2 25.56 1.56 26 1 26C0.44 26 0 25.56 0 25V1C0 0.44 0.44 0 1 0H33C33.56 0 34 0.44 34 1V33C34 33.56 33.56 34 33 34Z" fill="#28B87A"/>
<path d="M28 12C27.76 12 27.54 11.92 27.34 11.76L24.5 9.32L21.66 11.76C21.36 12.02 20.94 12.08 20.6 11.9C20.22 11.74 20 11.4 20 11V1C20 0.44 20.44 0 21 0H28C28.56 0 29 0.44 29 1V11C29 11.4 28.78 11.74 28.42 11.9C28.28 11.96 28.14 12 28 12ZM24.5 7C24.74 7 24.96 7.08 25.16 7.24L27 8.82V2H22V8.82L23.84 7.24C24.04 7.08 24.26 7 24.5 7Z" fill="#28B87A"/>
<path d="M8 34C3.58 34 0 30.42 0 26C0 21.58 3.58 18 8 18C12.42 18 16 21.58 16 26C16 30.42 12.42 34 8 34ZM8 20C4.7 20 2 22.7 2 26C2 29.3 4.7 32 8 32C11.3 32 14 29.3 14 26C14 22.7 11.3 20 8 20Z" fill="#28B87A"/>
<path d="M6.93998 29.38C6.67998 29.38 6.41999 29.28 6.23999 29.08L3.71998 26.56C3.31998 26.16 3.31998 25.54 3.71998 25.14C4.11998 24.74 4.73998 24.74 5.13998 25.14L6.95999 26.96L10.9 23.02C11.3 22.62 11.92 22.62 12.32 23.02C12.72 23.42 12.72 24.04 12.32 24.44L7.67997 29.08C7.45997 29.28 7.19998 29.38 6.93998 29.38Z" fill="#28B87A"/>
</svg>
