<?xml version="1.0" encoding="utf-8"?>
<!-- Generator: Adobe Illustrator 24.0.2, SVG Export Plug-In . SVG Version: 6.00 Build 0)  -->
<svg version="1.1" xmlns="http://www.w3.org/2000/svg" xmlns:xlink="http://www.w3.org/1999/xlink" x="0px" y="0px"
	 viewBox="0 0 40 40" style="enable-background:new 0 0 40 40;" xml:space="preserve">
<style type="text/css">
	.st0{fill:url(#SVGID_1_);}
	.st1{fill:url(#SVGID_2_);}
	.st2{fill:url(#SVGID_3_);}
	.st3{fill:url(#SVGID_4_);}
	.st4{fill:url(#SVGID_5_);}
	.st5{fill:url(#SVGID_6_);}
	.st6{fill:url(#SVGID_7_);}
	.st7{fill:url(#SVGID_8_);}
	.st8{fill:url(#SVGID_9_);}
	.st9{fill:url(#SVGID_10_);}
	.st10{fill:url(#SVGID_11_);}
	.st11{fill:url(#SVGID_12_);}
	.st12{fill:url(#SVGID_13_);}
	.st13{fill:url(#SVGID_14_);}
	.st14{fill:url(#SVGID_15_);}
	.st15{fill:url(#SVGID_16_);}
	.st16{fill:url(#SVGID_17_);}
	.st17{fill:url(#SVGID_18_);}
	.st18{fill:url(#SVGID_19_);}
	.st19{fill:url(#SVGID_20_);}
	.st20{fill:url(#SVGID_21_);}
	.st21{fill:url(#SVGID_22_);}
	.st22{fill:url(#SVGID_23_);}
	.st23{fill:url(#SVGID_24_);}
	.st24{fill:url(#SVGID_25_);}
	.st25{fill:url(#SVGID_26_);}
	.st26{fill:#0066FF;}
	.st27{fill-rule:evenodd;clip-rule:evenodd;fill:#093B70;}
	.st28{fill-rule:evenodd;clip-rule:evenodd;fill:#28B87A;}
	.st29{fill:#FFFFFF;}
</style>
<g id="Layer_2">
</g>
<g id="Layer_1">
	<rect class="st26" width="40" height="40"/>
	<circle class="st26" cx="20" cy="20" r="20"/>
	<g>
		<path class="st29" d="M20,22.65c2.68,0,6.51-5.2,6.51-8.82c0-3.59-2.92-6.51-6.51-6.51c-3.59,0-6.51,2.92-6.51,6.51
			C13.49,17.23,17.04,22.65,20,22.65z"/>
		<path class="st29" d="M24.01,24.05c-1.27-0.49-2.61-0.73-4.01-0.73s-2.74,0.25-4.01,0.73c-3.68,1.41-6.06,4.62-6.06,8.18
			c0,0.25,0.2,0.46,0.46,0.46h13.05h1.51h4.66c0.25,0,0.46-0.2,0.46-0.46C30.07,28.67,27.69,25.46,24.01,24.05z"/>
	</g>
</g>
</svg>
