<svg width="22" height="22" viewBox="0 0 22 22" fill="none" xmlns="http://www.w3.org/2000/svg">
<circle cx="11" cy="11" r="11" fill="#D14E4E"/>
<path d="M14.1402 4H7.85977C5.72993 4 4 5.7269 4 7.85977V14.1402C4 16.2701 5.7269 18 7.85977 18H14.1402C16.2701 18 18 16.2731 18 14.1402V7.85977C18 5.72993 16.2731 4 14.1402 4ZM16.8699 14.1251C16.8699 15.6399 15.6429 16.8699 14.1251 16.8699H7.87795C6.36312 16.8699 5.13309 15.6429 5.13309 14.1251V7.87492C5.13309 6.3601 6.3601 5.13006 7.87795 5.13006H14.1251C15.6399 5.13006 16.8699 6.35707 16.8699 7.87492V14.1251Z" fill="white"/>
<path d="M11.0015 7.3114C8.96558 7.3114 7.31442 8.96256 7.31442 11.0015C7.31442 13.0374 8.96558 14.6886 11.0015 14.6886C13.0374 14.6886 14.6916 13.0374 14.6916 11.0015C14.6886 8.96256 13.0374 7.3114 11.0015 7.3114ZM11.0015 13.404C9.67149 13.404 8.59596 12.3255 8.59596 10.9985C8.59596 9.66847 9.67452 8.59294 11.0015 8.59294C12.3285 8.59294 13.407 9.6715 13.407 10.9985C13.407 12.3285 12.3285 13.404 11.0015 13.404Z" fill="white"/>
<path d="M15.6429 7.1872C15.6429 7.64468 15.2733 8.0143 14.8158 8.0143C14.3584 8.0143 13.9887 7.64468 13.9887 7.1872C13.9887 6.72972 14.3584 6.36011 14.8158 6.36011C15.2733 6.36011 15.6429 6.72972 15.6429 7.1872Z" fill="white"/>
</svg>
