<svg width="22" height="22" viewBox="0 0 22 22" fill="none" xmlns="http://www.w3.org/2000/svg">
<circle cx="11" cy="11.0001" r="11" fill="#1566E1"/>
<path d="M17 12.3458V16.8423H14.3937V12.6461C14.3937 11.5933 14.0174 10.8742 13.0738 10.8742C12.3547 10.8742 11.9269 11.3597 11.7358 11.8269C11.666 11.9938 11.6508 12.2274 11.6508 12.4611V16.8393H9.0445C9.0445 16.8393 9.08091 9.73641 9.0445 8.99911H11.6508V10.1096C11.6448 10.1187 11.6387 10.1278 11.6326 10.1339H11.6508V10.1096C11.9967 9.5756 12.6157 8.81403 13.9992 8.81403C15.7166 8.81706 17 9.93666 17 12.3458ZM5 16.8393H7.60632V9.00214H5V16.8393ZM7.68218 6.34121C7.68218 7.08154 7.08142 7.6823 6.34109 7.6823C5.60076 7.6823 5 7.08154 5 6.34121C5 5.60088 5.60076 5.00012 6.34109 5.00012C7.08142 5.00012 7.68218 5.60088 7.68218 6.34121Z" fill="white"/>
</svg>
