<svg width="100" height="100" viewBox="0 0 100 100" fill="none" xmlns="http://www.w3.org/2000/svg">
<path fill-rule="evenodd" clip-rule="evenodd" d="M4.37971 39.723C1.6704 42.4323 0 46.1805 0 50.3565C0 54.451 1.6704 58.2196 4.37971 60.9289C7.08902 63.6382 10.8372 65.3086 14.9521 65.3697V65.3086H22.5708C26.319 65.3086 29.4357 62.8234 30.3117 59.1974C31.9821 52.0473 35.6284 45.6916 40.6396 40.66C45.6508 35.6284 52.0676 32.0024 59.177 30.332C62.8234 29.4561 65.2882 26.3394 65.2882 22.5912V15.0132C65.2882 10.8576 63.6178 7.10939 60.9085 4.37971C58.1992 1.6704 54.451 0 50.3361 0C46.1805 0 42.4323 1.6704 39.7026 4.37971C36.9729 7.08902 35.3229 10.8576 35.3229 15.0132V27.419C35.3229 31.7987 31.7987 35.3229 27.419 35.3229H14.9929C10.8372 35.3432 7.08902 37.0136 4.37971 39.723Z" fill="#093B70"/>
<path fill-rule="evenodd" clip-rule="evenodd" d="M95.7833 60.4604C98.3907 57.8529 100 54.288 100 50.3565C100 46.4249 98.3907 42.8397 95.7833 40.2526C93.1758 37.6451 89.672 36.0359 85.7405 36.0359H68.079H68.0179C59.177 36.0359 51.151 39.6211 45.386 45.386C39.6211 51.151 36.0359 59.177 36.0359 68.0179V85.6794C36.0359 89.6109 37.6451 93.1962 40.2526 95.7833C42.8601 98.3907 46.4249 100 50.3565 100C54.288 100 57.8733 98.3907 60.4604 95.7833C63.0678 93.1758 64.6771 89.6109 64.6771 85.6794V68.0179V64.6771H68.0179H85.6794C89.6109 64.6771 93.1758 63.0678 95.7833 60.4604Z" fill="#28B87A"/>
</svg>
